# xmcd
#
# Track frame offsets:
#	150
#	3034
#	11944
#	23048
#	32254
#	40531
#	42451
#	54022
#	62229
#	66147
#	78115
#	87421
#	91076
#	105088
#	117991
#	121846
#	123556
#	134476
#	144281
#	146432
#
# Disc length: 2118 seconds
#
# Revision: 0
# Processed by: cddbd v1.5.1PL0 Copyright (c) Steve Scherf et al.
# Submitted via: audiograbber 1.82.02
#
DISCID=f1084414
DTITLE=P.S.D. - Mixes and Renditions Vol. 3
DYEAR=2005
DGENRE=Rap
TTITLE0=P.S.D. - Ammbush Intro
TTITLE1=P.S.D. - Stay Dipped
TTITLE2=P.S.D. - Make Dat Cash ft. Peanut
TTITLE3=P.S.D. - Fuck U! This Thizz 
TTITLE4=P.S.D., Cash - Wit Dat Toy
TTITLE5=P.S.D. - Say Horrible Thangs 2 U
TTITLE6=P.S.D., Geezy - Who U In There Wit?!!
TTITLE7=P.S.D., Peanut - How We Chew
TTITLE8=P.S.D., Cash - To The Bone
TTITLE9=P.S.D., Manilla Black - I Need To Know Her
TTITLE10=P.S.D. - Go Ammbush, Go Stevie
TTITLE11=P.S.D. - Imagine Beggin 4 It
TTITLE12=P.S.D. - Gimme Some Trimm
TTITLE13=P.S.D. - Grey Bitch Problems
TTITLE14=P.S.D. - Did You Bail Her Out?
TTITLE15=P.S.D. - Get Gone
TTITLE16=P.S.D., Geezey, F.A.B. - Yo Cut
TTITLE17=P.S.D. - Lit and Stock
TTITLE18=P.S.D. - Soul Searchin
TTITLE19=P.S.D., Dubee - Fuck The World We Love Furl
EXTD=
EXTT0=
EXTT1=
EXTT2=
EXTT3=
EXTT4=
EXTT5=
EXTT6=
EXTT7=
EXTT8=
EXTT9=
EXTT10=
EXTT11=
EXTT12=
EXTT13=
EXTT14=
EXTT15=
EXTT16=
EXTT17=
EXTT18=
EXTT19=
PLAYORDER=
